<?xml version="1.0" encoding="UTF-8"?>
<svg id="Layer_1" data-name="Layer 1" xmlns="http://www.w3.org/2000/svg" viewBox="0 0 2864.32 1348.32">
  <defs>
    <style>
      .cls-1 {
        letter-spacing: -.02em;
      }

      .cls-1, .cls-2, .cls-3, .cls-4, .cls-5 {
        fill: #041f3d;
      }

      .cls-1, .cls-3, .cls-4, .cls-5 {
        font-family: Montserrat-Medium, Montserrat;
        font-size: 138.78px;
        font-weight: 500;
        isolation: isolate;
      }

      .cls-6 {
        fill: #5082ba;
      }

      .cls-3 {
        letter-spacing: -.02em;
      }

      .cls-7 {
        letter-spacing: -.01em;
      }

      .cls-5 {
        letter-spacing: -.04em;
      }
    </style>
  </defs>
  <g id="Layer_2-2" data-name="Layer 2-2">
    <g id="Layer_1-2-2" data-name="Layer 1-2-2">
      <g id="Layer_2-2-2" data-name="Layer 2-2-2">
        <g id="Layer_2-2-2-2" data-name="Layer 2-2-2-2">
          <path class="cls-2" d="m1124.81,60.04h381v110.41h-235.12v96.29h218.45v110.33h-218.45v166.21h-145.88V60.04Z"/>
          <path class="cls-2" d="m1850.84,543.28l-28.68-77.28h-198.35l-29.31,77.28h-150l209.58-483.24h149.76l202.21,483.24h-155.21Zm-186.38-182.1h119l-58.82-157.35-60.18,157.35Z"/>
          <path class="cls-2" d="m2290.56,177.35c-24.68-9.31-50.66-14.7-77-16-10.46-.65-20.88,1.89-29.86,7.3-7.08,3.74-11.38,12.37-10.72,21.51,0,12.91,6.79,23,21,30.17,21.41,9.64,43.64,17.34,66.43,23,29.26,7.78,57.94,17.58,85.83,29.35,22.1,9.73,42.06,25.19,58.43,45.25,17.07,21.7,26,50.65,24.7,80.25.68,31.42-9.06,61.92-27.14,85-19.89,24.79-45,42.81-72.83,52.16-32.85,11.81-67.56,17.62-102.47,17.17-43-.22-85.66-7.52-126.29-21.59-39.5-12.6-76.48-32.05-109.25-57.46l54.56-109.18c27.2,22.69,57.94,40.74,91,53.44,28.71,12.84,59.58,20.14,91,21.53,12.73.58,25.37-2.48,36.42-8.83,8.31-4.73,13.59-14.69,13.57-25.6,0-13.39-6.79-23.51-21.72-30.57-21.61-9.34-44.09-16.56-67.1-21.53-28.84-7.11-57.14-16.25-84.69-27.35-21.95-8.85-41.88-23.59-58.22-43.07-16.73-21-25.55-49.1-24.43-77.91-.32-29.9,8.64-58.91,25.18-81.53,19.07-25.68,43.74-44.66,71.32-54.88,34-13.16,70.24-19.55,106.69-18.81,36.93.13,73.66,5.34,109.16,15.51,33.45,9.17,65.44,23.03,95,41.17l-54.29,110.17c-26.78-15.58-55-28.53-84.28-38.67Z"/>
          <path class="cls-2" d="m2433.64,60.04h430.68v115.38h-142.9v367.86h-145.66V175.42h-142.12V60.04Z"/>
          <path class="cls-6" d="m1124.81,711.64h115.93l55.34,195,54.34-195h107.36l54.89,195,54.35-195h109.9l-112.14,305.8h-112.48l-50.91-175.52-52,175.52h-112.63l-111.95-305.8Z"/>
          <path class="cls-6" d="m1950.29,752.54c29.17,31.27,44.88,76.42,42.78,122.91.27,5.85.27,11.7,0,17.56h-209.43c4,14,12,25.85,22.58,33.7,10.94,8.06,24.27,12.21,37.85,11.78,25-.35,49.11-10.6,68.56-29.12l59.4,57.72c-17,18.63-37.31,32.65-59.4,41.09-25.06,9.56-51.71,14.26-78.52,13.83-30.84.63-61.38-6.1-89.1-19.62-23.32-11.29-43.41-30.26-57.88-54.65-13.73-24.14-20.82-52.71-20.31-81.8-.5-29.47,6.71-58.4,20.64-82.84,14.34-24.54,34.3-43.72,57.55-55.3,26.49-13.5,55.91-20.24,85.63-19.63,51.36-.26,91,14.39,119.65,44.37Zm-84,47c-19.53-19-47.72-19-67.24,0-9.36,10.64-15.54,23.71-17.82,37.7h97.67c.88-14.21-3.76-28.09-12.61-37.72v.02Z"/>
          <path class="cls-6" d="m2026.31,711.64h115.44v305.8h-115.44v-305.8Z"/>
          <path class="cls-6" d="m2495.93,711.64v279.29c.31,26.93-7.23,53.16-21.36,74.28-15.66,22.45-36.2,39.44-59.4,49.14-28.14,12.04-58.49,18.02-89.09,17.56-26.62.06-53.11-3.74-78.64-11.28-22.74-6.47-44.45-16.14-64.47-28.72l37.58-76.05c14.05,9.21,29.43,16.21,45.6,20.75,16.17,4.8,32.94,7.27,49.81,7.32,17.19,1.05,34.25-3.54,48.59-13.08,10.69-7.13,17.34-20.49,17.43-35v-32.76c-22.26,25.14-52.28,38.34-83,36.52-23.56.7-46.82-5.39-67-17.56-19.32-11.84-35.35-30-46.15-52.35-11.79-24.24-17.68-50.93-17.19-77.88-.45-26.08,5.14-51.91,16.34-75.47,10.47-21.62,25.92-39.27,44.55-50.91,20.03-12.01,43.06-18.1,66.41-17.56,31.57-2,62.48,11.35,85.48,37v-33.31l114.51.07Zm-128.55,189.77c10-12.23,15.39-28.78,14.82-45.8.63-17.31-4.73-34.17-14.82-46.73-10.22-11.89-24.14-18.25-38.46-17.56-14.1-.62-27.78,5.75-37.73,17.56-10,12.47-15.39,29.2-14.85,46.4-.46,16.89,4.9,33.28,14.85,45.42,21.71,23.23,54.77,23.23,76.48,0l-.29.71Z"/>
          <path class="cls-6" d="m2832.64,738.86c20.63,21,32.22,51.74,31.6,83.89v194.69h-115.19v-161.32c.61-13.58-3.77-26.82-12-36.31-9-9.2-20.63-13.89-32.48-13.08-13.85-.33-27.22,6-37.08,17.47-9.22,11.47-14.15,26.85-13.67,42.66v151.3h-116.18v-417.77h115.16v158c10.83-16.69,25-29.89,41.28-38.41,17.76-9.07,37.5-13.57,57.44-13.09,29.45-1.67,58.39,9.74,81.12,31.97Z"/>
          <rect class="cls-6" x="2034.9" y="611.45" width="98.28" height="75.32"/>
          <polygon class="cls-6" points="2026.32 696.39 2026.32 611.45 2026.32 601.96 2141.65 601.96 2141.65 696.39 2026.32 696.39 2026.32 696.39"/>
          <polygon class="cls-6" points="2043.37 677.08 2124.55 677.08 2124.55 621.07 2043.37 621.07 2043.37 677.08 2043.37 677.08"/>
          <g id="Layer_2-3" data-name="Layer 2-3">
            <g id="Layer_1-2-2-2" data-name="Layer 1-2-2-2">
              <path class="cls-6" d="m280.54,329.56l-61.71,64c-71.63,11.25-140.79,34.77-204.44,69.51,80.32-59.58,170.37-104.75,266.15-133.51Z"/>
              <path class="cls-6" d="m583.54,318.34l-71.08,73.37c-22.79-4.65-45.86-7.8-69.06-9.43-59.26-4.03-118.76-2.88-177.82,3.46l66.33-67.92c45.66-7.23,91.89-10.31,138.11-9.2,38,.93,75.91,4.18,113.52,9.72Z"/>
              <path class="cls-6" d="m926.24,438.33l-100,101.86c-82.69-62.14-175.52-109.51-274.36-140l73.37-77.27c106.19,20.99,207.99,60.02,300.99,115.41Z"/>
              <path class="cls-6" d="m1073.27,542.92v213.07c-64.1-65.13-132.28-126.11-204.13-182.57l103-106.43c27.86,18.12,54.67,37.82,80.28,59l20.85,16.93Z"/>
              <path class="cls-2" d="m131.92,487.39c-44.39-.38-88.67,4.46-131.92,14.43v379.2c.16,104.57,85.05,189.21,189.62,189h844.66C964.79,697.28,503.54,491.99,131.92,487.39Z"/>
              <path class="cls-2" d="m1074.42,299.06v-110C1074.18,84.4,989.12-.24,884.51,0H189.89C85.26-.29.24,84.35,0,189h0v207.28C196.38,154.38,702.81,30.03,1074.42,299.06Z"/>
            </g>
          </g>
        </g>
      </g>
    </g>
  </g>
  <text class="cls-4" transform="translate(1124.81 1311.82)"><tspan x="0" y="0">p</tspan></text>
  <g>
    <text class="cls-5" transform="translate(1219.32 1311.82)"><tspan x="0" y="0">o</tspan></text>
    <text class="cls-1" transform="translate(1301.2 1311.82)"><tspan x="0" y="0">w</tspan></text>
  </g>
  <text class="cls-4" transform="translate(1426.79 1311.82)"><tspan x="0" y="0">e</tspan><tspan class="cls-7" x="84.93" y="0">r</tspan><tspan x="140.17" y="0">ed</tspan></text>
  <text class="cls-3" transform="translate(1775.83 1311.82)"><tspan x="0" y="0">b</tspan></text>
  <text class="cls-4" transform="translate(1867.71 1311.82)"><tspan x="0" y="0">y</tspan></text>
  <g id="Layer_2-3-2" data-name="Layer 2-3-2">
    <g id="Layer_1-2-3" data-name="Layer 1-2-3">
      <path class="cls-2" d="m2019.45,1237.81h-36.23v-30.53h113.64v30.57h-36.22v78h-41.17l-.02-78.04Z"/>
      <path class="cls-2" d="m2124.43,1205.34h40.79l51.89,109.16h-44.73l-6.48-14.63h-43.08l-6.32,14.63h-44l51.93-109.16Zm31.31,68.94l-11.28-26.28-11.23,26.28h22.51Z"/>
      <path class="cls-2" d="m2202.64,1260.62v-.29c0-32.27,28.72-56.65,65.44-56.65,27.07,0,45.36,11.6,55.74,28.1l-33.91,17.5c-4.6-8.62-13.24-13.7-22.37-13.18-12-.77-22.27,9.19-23,22.24v1.8c-.25,13,9.22,23.76,21.14,24h1.88c9.45.41,18.34-4.83,23.22-13.65l34,16.86c-10.38,16.14-27.6,29.26-58.15,29.26-34.21.23-63.99-22.39-63.99-55.99Z"/>
      <path class="cls-6" d="m2329.81,1201.49h27.15v20.91h-27.15v-20.91Zm0,30h26.83v82.88h-26.84v-82.88Z"/>
      <path class="cls-6" d="m2327.57,1317.18v-88.34h31.63v88.34h-31.63Zm4.88-5.36h21.83v-77.61h-21.83v77.61Zm-5-86.79v-26.22h31.83v26.22h-31.83Zm4.69-5.31h22.37v-15.55h-22.37v15.55Z"/>
      <path class="cls-6" d="m2373.06,1231.52h26.84v11.76c6.63-8.51,16.85-13.43,27.64-13.31,20.22,0,32,11.75,32,30.81v53.63h-26.83v-46.33c0-11.11-6-16.86-16.15-16.86s-16.73,5.75-16.73,16.86v46.32h-26.84l.07-82.88Z"/>
      <path class="cls-6" d="m2430.28,1317.18v-48.75c-.31-9.75-4.47-13.84-13.73-14.19h0c-9.4.29-14,4.4-14.27,14.19h0v48.75h-31.64v-88.34h31.63v8.24c6.77-6.43,15.8-9.93,25.14-9.75h0c9.27-.47,18.35,2.77,25.23,9h0c6.29,6.52,9.64,15.32,9.27,24.37h0v56.51l-31.63-.03Zm0-63.38c3.55,4.01,5.35,9.27,5,14.62h0v43.86h21.83v-51.53c0-17.65-10.15-27.88-29.57-28.11h0c-10.21-.21-19.91,4.42-26.17,12.48h0l-4.2,4.88v-15.81h-21.83v77.61h21.83v-43.62c-.28-5.41,1.66-10.69,5.37-14.63h0c3.78-3.39,8.75-5.14,13.82-4.87h0c4.95-.25,9.79,1.5,13.42,4.87l.5.25Z"/>
      <path class="cls-6" d="m2466.47,1303.48l11.45-15.45c8.82,5.9,19.1,9.27,29.7,9.75,7.74,0,11.29-2.49,11.29-6.2v-.14c0-5.12-9.17-6.83-19.55-9.75-13.42-3.41-28.14-8.83-28.14-24.92v-.34c0-16.87,15.48-26.28,34.5-26.28,12.36.19,24.46,3.54,35.15,9.75l-10.23,16.27c-7.82-4.44-16.53-7.09-25.5-7.75-6.48,0-9.84,2.49-9.84,5.75v.29c0,4.64,9,6.83,19.15,9.76,13.19,3.84,28.54,9.45,28.54,24.37v.3c0,18.44-15.66,26.79-36.1,26.79-14.39.07-28.47-4.18-40.42-12.2Z"/>
      <path class="cls-6" d="m2465.13,1305.77l1.34-2.29,1.88,1.7-1.88-1.7-1.34,2.29-2.28-1.61,14.45-19.5,1.83,1.17c8.42,5.81,18.28,9.19,28.49,9.75h0c2.54.19,5.08-.28,7.39-1.36h0c1.25-.83,1.38-1.27,1.43-2.15h0v-.63c0-.44-.76-1.81-4.25-3.17h0c-3.31-1.32-8.19-2.44-13.42-3.85h0c-7.02-1.48-13.72-4.21-19.78-8.05h0c-6.56-4.29-10.44-11.66-10.28-19.5h0v-.34c0-19.06,17.4-29,36.95-29h0c12.75.04,25.27,3.4,36.32,9.75h0l2.42,1.42-12.93,20.58-1.88-1c-7.51-4.25-15.86-6.8-24.47-7.46h0c-2.12-.15-4.24.29-6.13,1.26h0c-1.12.78-1.25,1.22-1.29,1.76h0v.34s0,.34.71,1h0c1.06.85,2.25,1.53,3.53,2h0c3.27,1.42,8,2.73,13.11,4.29h0c7.03,1.76,13.74,4.59,19.91,8.39h0c6.5,4.05,10.44,11.17,10.42,18.82h0v.29c.2,9.25-4.22,17.89-11.54,22.57h0c-8.07,4.89-17.41,7.28-26.84,6.88h0c-14.91-.03-29.46-4.53-41.78-12.92l-.09.27Zm41.78,7.61c20.09,0,33.59-7.85,33.64-24.16h0v-.29c.02-5.88-3.1-11.33-8.19-14.29h0c-5.75-3.47-12-6.03-18.53-7.6h0c-5.1-1.56-9.89-2.88-13.42-4.49h0c-3.58-1.6-7.07-3.46-7.34-8h0v-.34c.23-5.71,5.5-8.39,12.3-8.39h0c8.62.59,17.02,3,24.65,7.07h0l7.47-11.89c-9.8-5.21-20.7-7.98-31.8-8.1h0c-8.14-.27-16.17,1.96-23,6.39h0c-5.72,3.87-9.1,10.36-9,17.26h0v.34c-.15,6.1,2.97,11.82,8.19,15h0c5.51,3.42,11.56,5.89,17.89,7.32h0c4.71,1.08,9.35,2.41,13.91,4h0c3.67,1.46,7.29,3.51,7.52,8.19h0v.29c.01,2.83-1.52,5.45-4,6.82h0c-3,1.51-6.35,2.2-9.71,2h0c-10.3-.45-20.31-3.61-29-9.16h0l-8.36,11.35c11.03,6.88,23.77,10.54,36.77,10.58v.1Z"/>
      <path class="cls-6" d="m2554.64,1231.52h26.83v82.88h-26.83v-82.88Z"/>
      <path class="cls-6" d="m2552.13,1317.18v-88.34h31.63v88.34h-31.63Zm4.88-5.36h21.83v-77.61h-21.83v77.61Z"/>
      <path class="cls-6" d="m2598.21,1330.88l8.94-17.6c9.9,5.04,20.89,7.58,32,7.41,18.29,0,26.84-7.75,26.84-22.57v-4c-7.67,8.95-19,13.9-30.78,13.46-22,0-41.87-14.09-41.87-38.71v-.3c0-24.76,20.26-38.71,41.87-38.71,11.45-.37,22.51,4.15,30.43,12.42v-10.68h26.84v64.26c0,14.62-4,25.69-11.94,32.66-8.95,7.7-22.37,11.12-40.62,11.12-14.37.14-28.61-2.85-41.71-8.76Zm67.86-61.93v-.29c0-11.31-10-19.21-23-19.21s-22.85,7.91-22.85,19.21v.29c0,11.46,9.84,19.21,22.85,19.21s23-7.89,23-19.2h0Z"/>
      <path class="cls-6" d="m2597.23,1333.37l1-2.49,2.1,1.31-2.1-1.31-1,2.49-2.51-1.18,11.58-22.37,2.06,1c9.52,4.93,20.11,7.44,30.83,7.31h0c16.92-.39,23.48-5.89,24.38-17.94h0c-7.77,6.9-17.9,10.53-28.28,10.14h0c-22.81,0-44.28-14.93-44.28-41.39h0v-.29c0-26.62,21.83-41.34,44.28-41.39h0c10.17-.32,20.11,3.04,28,9.46h0v-7.91h31.62v66.94c0,15.31-4.47,27.16-12.89,34.7h0c-9.53,8.34-23.62,11.75-42.19,11.75h0c-14.67.15-29.2-2.86-42.6-8.83Zm42.63,3.55c17.89,0,31-3.46,39.14-10.58h0c7.2-6.38,11-16.25,11-30.56h0v-61.57h-21.88v14.07l-4.07-4c-7.49-7.84-17.98-12.1-28.81-11.7h0c-20.8,0-39.36,13.12-39.41,36h0v.29c0,22.76,18.25,35.93,39.41,36h0c11.13.47,21.85-4.2,29.08-12.68h0l4.16-4.44v10.53c.44,7.17-2.39,14.15-7.69,19h0c-6.31,4.59-14.04,6.81-21.83,6.28h0c-10.66.09-21.2-2.24-30.82-6.82h0l-6.67,12.87c12.1,4.98,25.08,7.48,38.16,7.36l.23-.05Zm-22.15-68v-.29c0-13.26,11.54-21.84,25.32-21.89h0c13.82,0,25.46,8.58,25.5,21.89h0v.29c0,13.31-11.68,21.84-25.5,21.89h0c-13.78.06-25.27-8.44-25.32-21.85v-.04Zm4.92-.29v.29c0,9.51,8.15,16.43,20.4,16.53h0c12.26,0,20.58-7.21,20.63-16.53h0v-.29c0-9.31-8.37-16.43-20.63-16.53h0c-12.21,0-20.39,7.18-20.39,16.57v-.04Z"/>
      <path class="cls-6" d="m2707.58,1201.49h26.84v41.79c6.62-8.49,16.83-13.42,27.6-13.31,20.22,0,32,11.75,32,30.81v53.63h-26.84v-46.33c0-11.11-6-16.86-16.19-16.86s-16.69,5.75-16.69,16.86v46.32h-26.84l.12-112.91Z"/>
      <path class="cls-6" d="m2764.75,1317.18v-48.75c-.27-9.75-4.47-13.84-13.73-14.19h0c-9.4.29-14,4.4-14.28,14.19h0v48.75h-31.63v-118.37h31.76v38.27c6.78-6.44,15.84-9.95,25.19-9.75h0c9.27-.48,18.35,2.76,25.22,9h0c6.28,6.52,9.61,15.33,9.22,24.37h0v56.51l-31.75-.03Zm0-63.38c3.51,4.04,5.3,9.28,5,14.62h0v43.86h21.89v-51.53c-.22-17.65-10.2-27.84-29.56-28.11h0c-10.11-.15-19.69,4.48-25.86,12.48h0l-4.21,4.88v-45.85h-22v107.65h21.83v-43.62c-.32-5.4,1.61-10.69,5.32-14.63h0c3.78-3.39,8.76-5.14,13.83-4.87h0c4.95-.27,9.79,1.49,13.41,4.87l.35.25Z"/>
      <path class="cls-6" d="m2812.93,1290.95v-39.3h-11.29v-20.13h11.28v-21.24h26.84v21.21h22.16v20.13h-22.16v35.45c0,5.41,2.64,8,8.59,8,4.56.04,9.07-.96,13.19-2.92v18.72c-6.52,3.36-13.78,5.04-21.11,4.87-16.58.07-27.5-5.58-27.5-24.79Z"/>
      <path class="cls-6" d="m2840.17,1318.54c-7.54.53-15.04-1.5-21.29-5.76h0c-6.13-5.53-9.31-13.62-8.59-21.84h0v-36.66h-11.28v-25.47h11.28v-21.21h31.63v21.21h22.36v25.47h-22.36v32.81c.4,4.24.8,4.88,6.17,5.36h0c4.22.05,8.4-.87,12.21-2.68h0l3.45-1.7v24.66l-1.39.73c-6.84,3.45-14.44,5.13-22.1,4.88h0l-.09.2Zm-25-27.6c.27,17.7,8.95,21.84,25,22.28h0c6.43.14,12.81-1.18,18.66-3.85h0v-13.09c-3.46,1.18-7.09,1.77-10.74,1.76h0c-2.96.21-5.88-.75-8.14-2.68h0c-2.05-2.14-3.11-5.04-2.91-8h0v-38.38h22.37v-14.63h-22.37v-21.35h-21.83v21.21h-11.23v14.63h11.29v42.12l-.1-.02Z"/>
      <rect class="cls-6" x="2554.37" y="1201.49" width="27.15" height="20.91"/>
      <polygon class="cls-6" points="2552 1225.03 2552 1201.49 2552 1198.81 2583.9 1198.81 2583.9 1225.03 2552 1225.03 2552 1225.03"/>
      <polygon class="cls-6" points="2556.74 1219.72 2579.15 1219.72 2579.15 1204.17 2556.74 1204.17 2556.74 1219.72 2556.74 1219.72"/>
    </g>
  </g>
</svg>