<?xml version="1.0" encoding="UTF-8"?>
<svg id="Layer_1" data-name="Layer 1" xmlns="http://www.w3.org/2000/svg" viewBox="0 0 662.56 84.79">
  <defs>
    <style>
      .cls-1 {
        fill: #041f3d;
      }

      .cls-2 {
        fill: #5082ba;
      }
    </style>
  </defs>
  <g id="Layer_2" data-name="Layer 2">
    <g id="Layer_1-2" data-name="Layer 1-2">
      <g id="Layer_2-2" data-name="Layer 2-2">
        <g id="Layer_2-2-2" data-name="Layer 2-2-2">
          <path class="cls-1" d="m87,7.08h56.15v13.76h-34.65v12h32.19v13.75h-32.19v20.71h-21.5V7.08h0Z"/>
          <path class="cls-1" d="m194,67.3l-4.23-9.63h-29.23l-4.32,9.63h-22.1l30.88-60.22h22.07l29.8,60.22h-22.87Zm-27.47-22.69h17.54l-8.67-19.61-8.87,19.61h0Z"/>
          <path class="cls-1" d="m258.8,21.7c-3.68-1.17-7.49-1.84-11.35-2-1.52-.09-3.04.23-4.4.91-1.04.46-1.68,1.54-1.58,2.68,0,1.61,1,2.87,3.09,3.76,3.18,1.21,6.46,2.17,9.79,2.87,4.29.96,8.51,2.19,12.65,3.66,3.26,1.21,6.2,3.14,8.61,5.64,2.52,2.7,3.83,6.31,3.64,10,.1,3.92-1.33,7.72-4,10.59-2.93,3.09-6.64,5.33-10.73,6.5-4.89,1.48-9.99,2.2-15.1,2.14-6.3-.02-12.56-.92-18.61-2.68-5.71-1.52-11.15-3.94-16.1-7.16l8-13.61c4.11,2.88,8.63,5.12,13.41,6.66,4.3,1.61,8.82,2.52,13.41,2.68,1.85.08,3.7-.3,5.37-1.1,1.23-.59,2-1.83,2-3.19,0-1.67-1-2.93-3.2-3.81-3.21-1.17-6.52-2.07-9.89-2.68-4.23-.88-8.39-2.02-12.48-3.41-3.24-1.1-6.17-2.94-8.58-5.37-2.47-2.61-3.77-6.12-3.6-9.71-.05-3.73,1.27-7.34,3.71-10.16,2.81-3.2,6.45-5.57,10.51-6.84,5.07-1.65,10.39-2.44,15.72-2.34,5.42.01,10.82.66,16.09,1.93,4.86,1.12,9.57,2.84,14,5.13l-8,13.73c-3.98-1.96-8.12-3.57-12.38-4.82h0Z"/>
          <path class="cls-1" d="m279.88,7.08h63.47v14.38h-21.06v45.84h-21.46V21.46h-20.95V7.08Z"/>
          <path class="cls-2" d="m348.23,20.57h20.95l10,29.81,9.82-29.81h19.4l9.92,29.81,9.82-29.81h19.86l-20.26,46.73h-20.33l-9.2-26.82-9.39,26.82h-20.36s-20.23-46.73-20.23-46.73Z"/>
          <path class="cls-2" d="m497.4,26.82c5.27,4.78,8.11,11.68,7.73,18.78.05.89.05,1.79,0,2.68h-37.85c.73,2.13,2.17,3.95,4.08,5.15,2.06,1.25,4.43,1.88,6.84,1.8,4.51-.05,8.88-1.62,12.39-4.45l10.73,8.82c-3.08,2.85-6.74,4.99-10.73,6.28-4.58,1.47-9.38,2.19-14.19,2.12-5.52.11-10.99-.91-16.1-3-4.21-1.72-7.84-4.62-10.46-8.35-2.48-3.69-3.76-8.06-3.67-12.5-.09-4.5,1.21-8.92,3.73-12.66,2.59-3.76,6.19-6.71,10.4-8.49,4.89-2.08,10.17-3.11,15.48-3,9.28,0,16.45,2.24,21.62,6.82Zm-15.18,7.18c-3.53-2.91-8.62-2.91-12.15,0-1.64,1.54-2.77,3.55-3.22,5.76h17.65c.16-2.17-.68-4.29-2.28-5.76Z"/>
          <path class="cls-2" d="m511.14,20.57h20.86v46.73h-20.86V20.57Z"/>
          <path class="cls-2" d="m596,20.57v42.68c.06,4.11-1.31,8.12-3.86,11.35-2.83,3.43-6.54,6.03-10.73,7.51-5.16,1.85-10.62,2.76-16.1,2.68-4.79.01-9.56-.56-14.21-1.72-4.05-.97-7.97-2.44-11.65-4.39l6.79-11.62c2.59,1.43,5.36,2.49,8.24,3.17,2.94.74,5.97,1.11,9,1.12,3.06.17,6.1-.52,8.78-2,1.93-1.09,3.13-3.13,3.15-5.35v-5c-4.02,3.84-9.45,5.86-15,5.58-4.19.12-8.35-.8-12.1-2.68-3.49-1.81-6.39-4.59-8.34-8-2.11-3.61-3.18-7.72-3.11-11.9-.07-4.04.95-8.03,2.95-11.54,1.89-3.3,4.68-6,8.05-7.78,3.72-1.86,7.84-2.78,12-2.68,5.71-.31,11.29,1.74,15.45,5.66v-5.1h20.69,0Zm-23.23,29c1.81-1.87,2.78-4.4,2.68-7,.11-2.64-.86-5.22-2.68-7.14-1.84-1.82-4.36-2.79-6.95-2.68-2.55-.1-5.02.87-6.82,2.68-1.81,1.91-2.78,4.46-2.68,7.09-.08,2.58.88,5.09,2.68,6.94,3.92,3.55,9.9,3.55,13.82,0l-.05.11Z"/>
          <path class="cls-2" d="m656.85,24.73c3.73,3.2,5.82,7.91,5.71,12.82v29.75h-20.82v-24.65c.11-2.08-.68-4.1-2.17-5.55-1.62-1.41-3.73-2.12-5.87-2-2.5-.05-4.92.91-6.7,2.67-1.67,1.75-2.56,4.1-2.47,6.52v23.12h-21V3.57h20.81v24.14c1.96-2.55,4.52-4.57,7.46-5.87,3.28-1.4,6.82-2.08,10.38-2,5.33-.25,10.56,1.49,14.67,4.89h0Z"/>
          <rect class="cls-2" x="512.69" y="5.26" width="17.76" height="11.51"/>
          <polygon class="cls-2" points="511.14 18.24 511.14 5.26 511.14 3.81 531.98 3.81 531.98 18.24 511.14 18.24 511.14 18.24"/>
          <polygon class="cls-2" points="514.22 15.29 528.89 15.29 528.89 6.73 514.22 6.73 514.22 15.29 514.22 15.29"/>
          <g id="Layer_2-3" data-name="Layer 2-3">
            <g id="Layer_1-2-2" data-name="Layer 1-2-2">
              <path class="cls-2" d="m19.5,22.91l-4.29,4.45c-4.98.78-9.79,2.42-14.21,4.83,5.58-4.14,11.84-7.28,18.5-9.28Z"/>
              <path class="cls-2" d="m40.56,22.13l-4.94,5.1c-1.58-.32-3.19-.54-4.8-.65-4.12-.28-8.25-.2-12.36.24l4.61-4.72c3.17-.5,6.39-.72,9.6-.64,2.64.06,5.28.29,7.89.67Z"/>
              <path class="cls-2" d="m64.38,30.47l-6.95,7.08c-5.75-4.32-12.2-7.61-19.07-9.73l5.1-5.37c7.38,1.46,14.46,4.17,20.92,8.02Z"/>
              <path class="cls-2" d="m74.6,37.74v14.81c-4.46-4.53-9.2-8.77-14.19-12.69l7.16-7.4c1.94,1.26,3.8,2.63,5.58,4.1l1.45,1.18Z"/>
              <path class="cls-1" d="m9.17,33.88c-3.09-.03-6.16.31-9.17,1v26.36c0,7.27,5.91,13.15,13.18,13.14h58.71c-4.83-25.91-36.89-40.18-62.72-40.5Z"/>
              <path class="cls-1" d="m74.68,20.79v-7.65C74.66,5.87,68.75-.02,61.48,0H13.2C5.93-.02.02,5.87,0,13.14h0v14.41C13.65,10.73,48.85,2.09,74.68,20.79Z"/>
            </g>
          </g>
        </g>
      </g>
    </g>
  </g>
</svg>